<?xml version="1.0" encoding="UTF-8" standalone="no"?>
<!DOCTYPE svg PUBLIC "-//W3C//DTD SVG 1.1//EN"
 "http://www.w3.org/Graphics/SVG/1.1/DTD/svg11.dtd">
<!-- Generated by graphviz version 14.1.2 (20260124.0452)
 -->
<!-- Title: G Pages: 1 -->
<svg width="4377pt" height="2201pt"
 viewBox="13.00 13.00 4364.00 2188.00" xmlns="http://www.w3.org/2000/svg" xmlns:xlink="http://www.w3.org/1999/xlink">
<g id="graph0" class="graph" transform="scale(4.06031 4.06031) rotate(0) translate(14.72 527.3)">
<title>G</title>
<polygon fill="white" stroke="none" points="-11.52,11.52 -11.52,-524.1 1060.17,-524.1 1060.17,11.52 -11.52,11.52"/>
<!-- l1 -->
<g id="node1" class="node">
<title>l1</title>
<text xml:space="preserve" text-anchor="middle" x="27.45" y="-437.47" font-family="SimSun" font-size="13.00">采集层</text>
</g>
<!-- l2 -->
<g id="node2" class="node">
<title>l2</title>
<text xml:space="preserve" text-anchor="middle" x="32.45" y="-272.2" font-family="SimSun" font-size="13.00">消息层</text>
</g>
<!-- l1&#45;&gt;l2 -->
<!-- l3 -->
<g id="node3" class="node">
<title>l3</title>
<text xml:space="preserve" text-anchor="middle" x="41.45" y="-148.18" font-family="SimSun" font-size="13.00">持久化层</text>
</g>
<!-- l2&#45;&gt;l3 -->
<!-- l4 -->
<g id="node4" class="node">
<title>l4</title>
<text xml:space="preserve" text-anchor="middle" x="45.45" y="-46.66" font-family="SimSun" font-size="13.00">服务与展示层</text>
</g>
<!-- l3&#45;&gt;l4 -->
<!-- layer_w1 -->
<!-- fsrc -->
<g id="node6" class="node">
<title>fsrc</title>
<polygon fill="none" stroke="black" stroke-width="2" points="766.53,-471.33 676.38,-471.33 676.38,-414.81 766.53,-414.81 766.53,-471.33"/>
<text xml:space="preserve" text-anchor="middle" x="721.45" y="-452.27" font-family="SimSun" font-size="14.00">文件数据源</text>
<text xml:space="preserve" text-anchor="middle" x="721.45" y="-437.27" font-family="SimSun" font-size="14.00">(TDMS/日志)</text>
<text xml:space="preserve" text-anchor="middle" x="721.45" y="-422.27" font-family="SimSun" font-size="14.00">(101)</text>
</g>
<!-- layer_w1&#45;&gt;fsrc -->
<!-- nsrc -->
<g id="node7" class="node">
<title>nsrc</title>
<polygon fill="none" stroke="black" stroke-width="2" points="647.78,-471.33 559.12,-471.33 559.12,-414.81 647.78,-414.81 647.78,-471.33"/>
<text xml:space="preserve" text-anchor="middle" x="603.45" y="-452.27" font-family="SimSun" font-size="14.00">网络数据源</text>
<text xml:space="preserve" text-anchor="middle" x="603.45" y="-437.27" font-family="SimSun" font-size="14.00">(Kafka/TCP)</text>
<text xml:space="preserve" text-anchor="middle" x="603.45" y="-422.27" font-family="SimSun" font-size="14.00">(102)</text>
</g>
<!-- layer_w1&#45;&gt;nsrc -->
<!-- norm -->
<g id="node8" class="node">
<title>norm</title>
<polygon fill="none" stroke="black" stroke-width="2" points="909.53,-463.83 795.38,-463.83 795.38,-422.31 909.53,-422.31 909.53,-463.83"/>
<text xml:space="preserve" text-anchor="middle" x="852.45" y="-444.77" font-family="SimSun" font-size="14.00">数据标准化处理</text>
<text xml:space="preserve" text-anchor="middle" x="852.45" y="-429.77" font-family="SimSun" font-size="14.00">(110)</text>
</g>
<!-- layer_w1&#45;&gt;norm -->
<!-- fsrc&#45;&gt;norm -->
<g id="edge13" class="edge">
<title>fsrc&#45;&gt;norm</title>
<path fill="none" stroke="black" stroke-width="2" d="M767.27,-443C767.27,-443 784.15,-443 784.15,-443"/>
<polygon fill="black" stroke="black" stroke-width="2" points="784.15,-445.63 791.65,-443 784.15,-440.38 784.15,-445.63"/>
</g>
<!-- nsrc&#45;&gt;norm -->
<g id="edge14" class="edge">
<title>nsrc&#45;&gt;norm</title>
<path fill="none" stroke="black" stroke-width="2" d="M603.45,-472.1C603.45,-482.63 603.45,-492 603.45,-492 603.45,-492 852.45,-492 852.45,-492 852.45,-492 852.45,-475.2 852.45,-475.2"/>
<polygon fill="black" stroke="black" stroke-width="2" points="855.08,-475.2 852.45,-467.7 849.83,-475.2 855.08,-475.2"/>
</g>
<!-- mq -->
<g id="node10" class="node">
<title>mq</title>
<polygon fill="none" stroke="black" stroke-width="2" points="909.53,-328.56 795.38,-328.56 795.38,-227.04 909.53,-227.04 909.53,-328.56"/>
<text xml:space="preserve" text-anchor="middle" x="852.45" y="-309.5" font-family="SimSun" font-size="14.00">消息中间件主题</text>
<text xml:space="preserve" text-anchor="middle" x="852.45" y="-294.5" font-family="SimSun" font-size="14.00">shot&#45;metadata</text>
<text xml:space="preserve" text-anchor="middle" x="852.45" y="-279.5" font-family="SimSun" font-size="14.00">wave&#45;data</text>
<text xml:space="preserve" text-anchor="middle" x="852.45" y="-264.5" font-family="SimSun" font-size="14.00">operation&#45;log</text>
<text xml:space="preserve" text-anchor="middle" x="852.45" y="-249.5" font-family="SimSun" font-size="14.00">plc&#45;interlock</text>
<text xml:space="preserve" text-anchor="middle" x="852.45" y="-234.5" font-family="SimSun" font-size="14.00">(120)</text>
</g>
<!-- norm&#45;&gt;mq -->
<g id="edge15" class="edge">
<title>norm&#45;&gt;mq</title>
<path fill="none" stroke="black" stroke-width="2" d="M871.48,-421.46C871.48,-421.46 871.48,-339.83 871.48,-339.83"/>
<polygon fill="black" stroke="black" stroke-width="2" points="874.1,-339.83 871.48,-332.33 868.85,-339.83 874.1,-339.83"/>
</g>
<!-- layer_w2 -->
<!-- layer_w2&#45;&gt;mq -->
<!-- mysql -->
<g id="node12" class="node">
<title>mysql</title>
<polygon fill="none" stroke="black" stroke-width="2" points="914.4,-182.04 814.5,-182.04 814.5,-125.52 914.4,-125.52 914.4,-182.04"/>
<text xml:space="preserve" text-anchor="middle" x="864.45" y="-162.98" font-family="SimSun" font-size="14.00">关系型数据库</text>
<text xml:space="preserve" text-anchor="middle" x="864.45" y="-147.98" font-family="SimSun" font-size="14.00">(MySQL/H2)</text>
<text xml:space="preserve" text-anchor="middle" x="864.45" y="-132.98" font-family="SimSun" font-size="14.00">(130)</text>
</g>
<!-- mq&#45;&gt;mysql -->
<g id="edge16" class="edge">
<title>mq&#45;&gt;mysql</title>
<path fill="none" stroke="black" stroke-width="2" d="M877.85,-226.28C877.85,-226.28 877.85,-193.52 877.85,-193.52"/>
<polygon fill="black" stroke="black" stroke-width="2" points="880.48,-193.52 877.85,-186.02 875.23,-193.52 880.48,-193.52"/>
</g>
<!-- influx -->
<g id="node13" class="node">
<title>influx</title>
<polygon fill="none" stroke="black" stroke-width="2" points="785.28,-182.04 699.62,-182.04 699.62,-125.52 785.28,-125.52 785.28,-182.04"/>
<text xml:space="preserve" text-anchor="middle" x="742.45" y="-162.98" font-family="SimSun" font-size="14.00">时序数据库</text>
<text xml:space="preserve" text-anchor="middle" x="742.45" y="-147.98" font-family="SimSun" font-size="14.00">(InfluxDB)</text>
<text xml:space="preserve" text-anchor="middle" x="742.45" y="-132.98" font-family="SimSun" font-size="14.00">(131)</text>
</g>
<!-- mq&#45;&gt;influx -->
<g id="edge17" class="edge">
<title>mq&#45;&gt;influx</title>
<path fill="none" stroke="black" stroke-width="2" d="M794.48,-243C783.81,-243 775.96,-243 775.96,-243 775.96,-243 775.96,-193.52 775.96,-193.52"/>
<polygon fill="black" stroke="black" stroke-width="2" points="778.59,-193.52 775.96,-186.02 773.34,-193.52 778.59,-193.52"/>
</g>
<!-- layer_w3 -->
<!-- layer_w3&#45;&gt;mysql -->
<!-- layer_w3&#45;&gt;influx -->
<!-- api -->
<g id="node15" class="node">
<title>api</title>
<polygon fill="none" stroke="black" stroke-width="2" points="798.4,-80.52 698.5,-80.52 698.5,-24 798.4,-24 798.4,-80.52"/>
<text xml:space="preserve" text-anchor="middle" x="748.45" y="-61.46" font-family="SimSun" font-size="14.00">服务接口模块</text>
<text xml:space="preserve" text-anchor="middle" x="748.45" y="-46.46" font-family="SimSun" font-size="14.00">(REST API)</text>
<text xml:space="preserve" text-anchor="middle" x="748.45" y="-31.46" font-family="SimSun" font-size="14.00">(140)</text>
</g>
<!-- mysql&#45;&gt;api -->
<g id="edge18" class="edge">
<title>mysql&#45;&gt;api</title>
<path fill="none" stroke="black" stroke-width="2" d="M821,-124.74C821,-97.85 821,-62 821,-62 821,-62 809.76,-62 809.76,-62"/>
<polygon fill="black" stroke="black" stroke-width="2" points="809.76,-59.38 802.26,-62 809.76,-64.63 809.76,-59.38"/>
</g>
<!-- influx&#45;&gt;api -->
<g id="edge19" class="edge">
<title>influx&#45;&gt;api</title>
<path fill="none" stroke="black" stroke-width="2" d="M742.45,-124.69C742.45,-124.69 742.45,-91.88 742.45,-91.88"/>
<polygon fill="black" stroke="black" stroke-width="2" points="745.08,-91.88 742.45,-84.38 739.83,-91.88 745.08,-91.88"/>
</g>
<!-- layer_w4 -->
<!-- layer_w4&#45;&gt;api -->
<!-- ws -->
<g id="node16" class="node">
<title>ws</title>
<polygon fill="none" stroke="black" stroke-width="2" points="927.4,-80.52 827.5,-80.52 827.5,-24 927.4,-24 927.4,-80.52"/>
<text xml:space="preserve" text-anchor="middle" x="877.45" y="-61.46" font-family="SimSun" font-size="14.00">实时推送模块</text>
<text xml:space="preserve" text-anchor="middle" x="877.45" y="-46.46" font-family="SimSun" font-size="14.00">(WebSocket)</text>
<text xml:space="preserve" text-anchor="middle" x="877.45" y="-31.46" font-family="SimSun" font-size="14.00">(141)</text>
</g>
<!-- layer_w4&#45;&gt;ws -->
<!-- ui -->
<g id="node17" class="node">
<title>ui</title>
<polygon fill="none" stroke="black" stroke-width="2" points="1042.28,-73.02 956.62,-73.02 956.62,-31.5 1042.28,-31.5 1042.28,-73.02"/>
<text xml:space="preserve" text-anchor="middle" x="999.45" y="-53.96" font-family="SimSun" font-size="14.00">可视化终端</text>
<text xml:space="preserve" text-anchor="middle" x="999.45" y="-38.96" font-family="SimSun" font-size="14.00">(150)</text>
</g>
<!-- layer_w4&#45;&gt;ui -->
<!-- api&#45;&gt;ws -->
<g id="edge20" class="edge">
<title>api&#45;&gt;ws</title>
<path fill="none" stroke="black" stroke-width="2" d="M799.06,-43C799.06,-43 816.03,-43 816.03,-43"/>
<polygon fill="black" stroke="black" stroke-width="2" points="816.03,-45.63 823.53,-43 816.03,-40.38 816.03,-45.63"/>
</g>
<!-- ws&#45;&gt;ui -->
<g id="edge21" class="edge">
<title>ws&#45;&gt;ui</title>
<path fill="none" stroke="black" stroke-width="2" d="M928.13,-52C928.13,-52 945.2,-52 945.2,-52"/>
<polygon fill="black" stroke="black" stroke-width="2" points="945.2,-54.63 952.7,-52 945.2,-49.38 945.2,-54.63"/>
</g>
<!-- legend -->
<g id="node18" class="node">
<title>legend</title>
<polygon fill="none" stroke="black" stroke-width="2" points="1048.65,-512.58 938.25,-512.58 938.25,-373.56 1048.65,-373.56 1048.65,-512.58"/>
<text xml:space="preserve" text-anchor="start" x="945.45" y="-495.42" font-family="SimSun" font-size="12.00">附图标记说明</text>
<text xml:space="preserve" text-anchor="start" x="945.45" y="-482.67" font-family="SimSun" font-size="12.00">101 文件数据源</text>
<text xml:space="preserve" text-anchor="start" x="945.45" y="-469.92" font-family="SimSun" font-size="12.00">102 网络数据源</text>
<text xml:space="preserve" text-anchor="start" x="945.45" y="-457.17" font-family="SimSun" font-size="12.00">110 标准化处理</text>
<text xml:space="preserve" text-anchor="start" x="945.45" y="-444.42" font-family="SimSun" font-size="12.00">120 消息中间件</text>
<text xml:space="preserve" text-anchor="start" x="945.45" y="-431.67" font-family="SimSun" font-size="12.00">130 关系型数据库</text>
<text xml:space="preserve" text-anchor="start" x="945.45" y="-418.92" font-family="SimSun" font-size="12.00">131 时序数据库</text>
<text xml:space="preserve" text-anchor="start" x="945.45" y="-406.17" font-family="SimSun" font-size="12.00">140 服务接口</text>
<text xml:space="preserve" text-anchor="start" x="945.45" y="-393.42" font-family="SimSun" font-size="12.00">141 实时推送</text>
<text xml:space="preserve" text-anchor="start" x="945.45" y="-380.67" font-family="SimSun" font-size="12.00">150 可视化终端</text>
</g>
</g>
</svg>
