<?xml version="1.0" encoding="UTF-8" standalone="no"?>
<!DOCTYPE svg PUBLIC "-//W3C//DTD SVG 1.1//EN"
 "http://www.w3.org/Graphics/SVG/1.1/DTD/svg11.dtd">
<!-- Generated by graphviz version 14.1.2 (20260124.0452)
 -->
<!-- Title: G Pages: 1 -->
<svg width="4377pt" height="4893pt"
 viewBox="13.00 13.00 4364.00 4880.00" xmlns="http://www.w3.org/2000/svg" xmlns:xlink="http://www.w3.org/1999/xlink">
<g id="graph0" class="graph" transform="scale(8.65363 8.65363) rotate(0) translate(13.02 552.42)">
<title>G</title>
<polygon fill="white" stroke="none" points="-11.52,11.52 -11.52,-550.91 491.32,-550.91 491.32,11.52 -11.52,11.52"/>
<!-- core -->
<g id="node1" class="node">
<title>core</title>
<polygon fill="none" stroke="black" stroke-width="2" points="479.8,-293.76 177.4,-293.76 177.4,-221.76 479.8,-221.76 479.8,-293.76"/>
<text xml:space="preserve" text-anchor="middle" x="328.6" y="-259.46" font-family="SimSun" font-size="14.00">双数据源波形数据处理系统</text>
<text xml:space="preserve" text-anchor="middle" x="328.6" y="-244.46" font-family="SimSun" font-size="14.00">(200)</text>
</g>
<!-- out1 -->
<g id="node5" class="node">
<title>out1</title>
<polygon fill="none" stroke="black" stroke-width="2" points="378.55,-41.52 278.65,-41.52 278.65,0 378.55,0 378.55,-41.52"/>
<text xml:space="preserve" text-anchor="middle" x="328.6" y="-22.46" font-family="SimSun" font-size="14.00">分层存储模块</text>
<text xml:space="preserve" text-anchor="middle" x="328.6" y="-7.46" font-family="SimSun" font-size="14.00">(204)</text>
</g>
<!-- core&#45;&gt;out1 -->
<g id="edge4" class="edge">
<title>core&#45;&gt;out1</title>
<path fill="none" stroke="black" stroke-width="2" d="M428.8,-220.99C428.8,-154.42 428.8,-20.76 428.8,-20.76 428.8,-20.76 389.81,-20.76 389.81,-20.76"/>
<polygon fill="black" stroke="black" stroke-width="2" points="389.81,-18.14 382.31,-20.76 389.81,-23.39 389.81,-18.14"/>
</g>
<!-- out2 -->
<g id="node6" class="node">
<title>out2</title>
<polygon fill="none" stroke="black" stroke-width="2" points="378.55,-115.52 278.65,-115.52 278.65,-74 378.55,-74 378.55,-115.52"/>
<text xml:space="preserve" text-anchor="middle" x="328.6" y="-96.46" font-family="SimSun" font-size="14.00">服务接口模块</text>
<text xml:space="preserve" text-anchor="middle" x="328.6" y="-81.46" font-family="SimSun" font-size="14.00">(205)</text>
</g>
<!-- core&#45;&gt;out2 -->
<g id="edge5" class="edge">
<title>core&#45;&gt;out2</title>
<path fill="none" stroke="black" stroke-width="2" d="M227.8,-220.77C227.8,-172.68 227.8,-94.76 227.8,-94.76 227.8,-94.76 267.38,-94.76 267.38,-94.76"/>
<polygon fill="black" stroke="black" stroke-width="2" points="267.38,-97.39 274.88,-94.76 267.38,-92.14 267.38,-97.39"/>
</g>
<!-- out3 -->
<g id="node7" class="node">
<title>out3</title>
<polygon fill="none" stroke="black" stroke-width="2" points="378.55,-189.52 278.65,-189.52 278.65,-148 378.55,-148 378.55,-189.52"/>
<text xml:space="preserve" text-anchor="middle" x="328.6" y="-170.46" font-family="SimSun" font-size="14.00">实时推送模块</text>
<text xml:space="preserve" text-anchor="middle" x="328.6" y="-155.46" font-family="SimSun" font-size="14.00">(206)</text>
</g>
<!-- core&#45;&gt;out3 -->
<g id="edge6" class="edge">
<title>core&#45;&gt;out3</title>
<path fill="none" stroke="black" stroke-width="2" d="M328.8,-220.79C328.8,-220.79 328.8,-201.01 328.8,-201.01"/>
<polygon fill="black" stroke="black" stroke-width="2" points="331.43,-201.01 328.8,-193.51 326.18,-201.01 331.43,-201.01"/>
</g>
<!-- in1 -->
<g id="node2" class="node">
<title>in1</title>
<polygon fill="none" stroke="black" stroke-width="2" points="378.55,-515.52 278.65,-515.52 278.65,-474 378.55,-474 378.55,-515.52"/>
<text xml:space="preserve" text-anchor="middle" x="328.6" y="-496.46" font-family="SimSun" font-size="14.00">数据接入模块</text>
<text xml:space="preserve" text-anchor="middle" x="328.6" y="-481.46" font-family="SimSun" font-size="14.00">(201)</text>
</g>
<!-- in1&#45;&gt;core -->
<g id="edge1" class="edge">
<title>in1&#45;&gt;core</title>
<path fill="none" stroke="black" stroke-width="2" d="M379.48,-494.76C405.93,-494.76 432.8,-494.76 432.8,-494.76 432.8,-494.76 432.8,-305.06 432.8,-305.06"/>
<polygon fill="black" stroke="black" stroke-width="2" points="435.43,-305.06 432.8,-297.56 430.18,-305.06 435.43,-305.06"/>
</g>
<!-- in2 -->
<g id="node3" class="node">
<title>in2</title>
<polygon fill="none" stroke="black" stroke-width="2" points="385.68,-441.52 271.53,-441.52 271.53,-400 385.68,-400 385.68,-441.52"/>
<text xml:space="preserve" text-anchor="middle" x="328.6" y="-422.46" font-family="SimSun" font-size="14.00">数据标准化模块</text>
<text xml:space="preserve" text-anchor="middle" x="328.6" y="-407.46" font-family="SimSun" font-size="14.00">(202)</text>
</g>
<!-- in2&#45;&gt;core -->
<g id="edge2" class="edge">
<title>in2&#45;&gt;core</title>
<path fill="none" stroke="black" stroke-width="2" d="M274.8,-399.11C274.8,-399.11 274.8,-305.02 274.8,-305.02"/>
<polygon fill="black" stroke="black" stroke-width="2" points="277.43,-305.02 274.8,-297.52 272.18,-305.02 277.43,-305.02"/>
</g>
<!-- in3 -->
<g id="node4" class="node">
<title>in3</title>
<polygon fill="none" stroke="black" stroke-width="2" points="378.55,-367.52 278.65,-367.52 278.65,-326 378.55,-326 378.55,-367.52"/>
<text xml:space="preserve" text-anchor="middle" x="328.6" y="-348.46" font-family="SimSun" font-size="14.00">消息处理模块</text>
<text xml:space="preserve" text-anchor="middle" x="328.6" y="-333.46" font-family="SimSun" font-size="14.00">(203)</text>
</g>
<!-- in3&#45;&gt;core -->
<g id="edge3" class="edge">
<title>in3&#45;&gt;core</title>
<path fill="none" stroke="black" stroke-width="2" d="M328.8,-325.22C328.8,-325.22 328.8,-305.26 328.8,-305.26"/>
<polygon fill="black" stroke="black" stroke-width="2" points="331.43,-305.26 328.8,-297.76 326.18,-305.26 331.43,-305.26"/>
</g>
<!-- sw -->
<g id="node8" class="node">
<title>sw</title>
<polygon fill="none" stroke="black" stroke-width="2" points="117.15,-278.52 17.25,-278.52 17.25,-237 117.15,-237 117.15,-278.52"/>
<text xml:space="preserve" text-anchor="middle" x="67.2" y="-259.46" font-family="SimSun" font-size="14.00">主备切换模块</text>
<text xml:space="preserve" text-anchor="middle" x="67.2" y="-244.46" font-family="SimSun" font-size="14.00">(207)</text>
</g>
<!-- sw&#45;&gt;core -->
<g id="edge7" class="edge">
<title>sw&#45;&gt;core</title>
<path fill="none" stroke="black" stroke-width="2" d="M117.91,-257.76C117.91,-257.76 166.11,-257.76 166.11,-257.76"/>
<polygon fill="black" stroke="black" stroke-width="2" points="166.11,-260.39 173.61,-257.76 166.11,-255.14 166.11,-260.39"/>
</g>
<!-- legend -->
<g id="node9" class="node">
<title>legend</title>
<polygon fill="none" stroke="black" stroke-width="2" points="134.4,-539.39 0,-539.39 0,-464.12 134.4,-464.12 134.4,-539.39"/>
<text xml:space="preserve" text-anchor="start" x="7.2" y="-522.24" font-family="SimSun" font-size="12.00">附图标记说明</text>
<text xml:space="preserve" text-anchor="start" x="7.2" y="-509.49" font-family="SimSun" font-size="12.00">200 系统主体</text>
<text xml:space="preserve" text-anchor="start" x="7.2" y="-496.74" font-family="SimSun" font-size="12.00">201&#45;203 输入处理链路</text>
<text xml:space="preserve" text-anchor="start" x="7.2" y="-483.99" font-family="SimSun" font-size="12.00">204&#45;206 输出服务链路</text>
<text xml:space="preserve" text-anchor="start" x="7.2" y="-471.24" font-family="SimSun" font-size="12.00">207 主备切换控制</text>
</g>
</g>
</svg>
