<?xml version="1.0" encoding="UTF-8" standalone="no"?>
<!DOCTYPE svg PUBLIC "-//W3C//DTD SVG 1.1//EN"
 "http://www.w3.org/Graphics/SVG/1.1/DTD/svg11.dtd">
<!-- Generated by graphviz version 14.1.2 (20260124.0452)
 -->
<!-- Title: G Pages: 1 -->
<svg width="3723pt" height="5975pt"
 viewBox="13.00 13.00 3710.00 5962.00" xmlns="http://www.w3.org/2000/svg" xmlns:xlink="http://www.w3.org/1999/xlink">
<g id="graph0" class="graph" transform="scale(9.02778 9.02778) rotate(0) translate(12.96 648.88)">
<title>G</title>
<polygon fill="white" stroke="none" points="-11.52,11.52 -11.52,-647.44 398.04,-647.44 398.04,11.52 -11.52,11.52"/>
<!-- s101 -->
<g id="node1" class="node">
<title>s101</title>
<polygon fill="none" stroke="black" stroke-width="2" points="167.52,-624.1 0,-624.1 0,-588.1 167.52,-588.1 167.52,-624.1"/>
<text xml:space="preserve" text-anchor="middle" x="83.76" y="-607.45" font-family="SimSun" font-size="12.00">接收文件源与网络源工业数据</text>
<text xml:space="preserve" text-anchor="middle" x="83.76" y="-594.7" font-family="SimSun" font-size="12.00">(S101)</text>
</g>
<!-- s102 -->
<g id="node2" class="node">
<title>s102</title>
<polygon fill="none" stroke="black" stroke-width="2" points="143.52,-544.28 24,-544.28 24,-508.28 143.52,-508.28 143.52,-544.28"/>
<text xml:space="preserve" text-anchor="middle" x="83.76" y="-527.63" font-family="SimSun" font-size="12.00">解析并执行统一建模</text>
<text xml:space="preserve" text-anchor="middle" x="83.76" y="-514.88" font-family="SimSun" font-size="12.00">(S102)</text>
</g>
<!-- s101&#45;&gt;s102 -->
<g id="edge1" class="edge">
<title>s101&#45;&gt;s102</title>
<path fill="none" stroke="black" stroke-width="2" d="M83.76,-587.18C83.76,-587.18 83.76,-555.59 83.76,-555.59"/>
<polygon fill="black" stroke="black" stroke-width="2" points="86.39,-555.59 83.76,-548.09 81.14,-555.59 86.39,-555.59"/>
</g>
<!-- s103 -->
<g id="node3" class="node">
<title>s103</title>
<polygon fill="none" stroke="black" stroke-width="2" points="155.52,-476.28 12,-476.28 12,-440.28 155.52,-440.28 155.52,-476.28"/>
<text xml:space="preserve" text-anchor="middle" x="83.76" y="-459.63" font-family="SimSun" font-size="12.00">按主题发送至消息中间件</text>
<text xml:space="preserve" text-anchor="middle" x="83.76" y="-446.88" font-family="SimSun" font-size="12.00">(S103)</text>
</g>
<!-- s102&#45;&gt;s103 -->
<g id="edge2" class="edge">
<title>s102&#45;&gt;s103</title>
<path fill="none" stroke="black" stroke-width="2" d="M83.76,-507.34C83.76,-507.34 83.76,-487.65 83.76,-487.65"/>
<polygon fill="black" stroke="black" stroke-width="2" points="86.39,-487.65 83.76,-480.15 81.14,-487.65 86.39,-487.65"/>
</g>
<!-- s104 -->
<g id="node4" class="node">
<title>s104</title>
<polygon fill="none" stroke="black" stroke-width="2" points="192.52,-172 61,-172 61,-136 192.52,-136 192.52,-172"/>
<text xml:space="preserve" text-anchor="middle" x="126.76" y="-155.35" font-family="SimSun" font-size="12.00">分主题消费并分层存储</text>
<text xml:space="preserve" text-anchor="middle" x="126.76" y="-142.6" font-family="SimSun" font-size="12.00">(S104)</text>
</g>
<!-- s103&#45;&gt;s104 -->
<g id="edge3" class="edge">
<title>s103&#45;&gt;s104</title>
<path fill="none" stroke="black" stroke-width="2" d="M33.5,-439.7C33.5,-373.64 33.5,-154 33.5,-154 33.5,-154 49.95,-154 49.95,-154"/>
<polygon fill="black" stroke="black" stroke-width="2" points="49.95,-156.63 57.45,-154 49.95,-151.38 49.95,-156.63"/>
</g>
<!-- dec -->
<g id="node7" class="node">
<title>dec</title>
<polygon fill="none" stroke="black" stroke-width="2" points="162.76,-408.28 67.24,-374.14 162.76,-340 258.28,-374.14 162.76,-408.28"/>
<text xml:space="preserve" text-anchor="middle" x="162.76" y="-375.49" font-family="SimSun" font-size="12.00">主数据源可用？</text>
<text xml:space="preserve" text-anchor="middle" x="162.76" y="-362.74" font-family="SimSun" font-size="12.00">(S201)</text>
</g>
<!-- s103&#45;&gt;dec -->
<g id="edge6" class="edge">
<title>s103&#45;&gt;dec</title>
<path fill="none" stroke="black" stroke-width="2" d="M111.38,-439.61C111.38,-439.61 111.38,-401.29 111.38,-401.29"/>
<polygon fill="black" stroke="black" stroke-width="2" points="114.01,-401.29 111.38,-393.79 108.76,-401.29 114.01,-401.29"/>
</g>
<!-- s105 -->
<g id="node5" class="node">
<title>s105</title>
<polygon fill="none" stroke="black" stroke-width="2" points="198.52,-104 55,-104 55,-68 198.52,-68 198.52,-104"/>
<text xml:space="preserve" text-anchor="middle" x="126.76" y="-87.35" font-family="SimSun" font-size="12.00">提供查询与同步触发接口</text>
<text xml:space="preserve" text-anchor="middle" x="126.76" y="-74.6" font-family="SimSun" font-size="12.00">(S105)</text>
</g>
<!-- s104&#45;&gt;s105 -->
<g id="edge4" class="edge">
<title>s104&#45;&gt;s105</title>
<path fill="none" stroke="black" stroke-width="2" d="M126.76,-135.06C126.76,-135.06 126.76,-115.37 126.76,-115.37"/>
<polygon fill="black" stroke="black" stroke-width="2" points="129.39,-115.37 126.76,-107.87 124.14,-115.37 129.39,-115.37"/>
</g>
<!-- s106 -->
<g id="node6" class="node">
<title>s106</title>
<polygon fill="none" stroke="black" stroke-width="2" points="186.52,-36 67,-36 67,0 186.52,0 186.52,-36"/>
<text xml:space="preserve" text-anchor="middle" x="126.76" y="-19.35" font-family="SimSun" font-size="12.00">推送处理状态与结果</text>
<text xml:space="preserve" text-anchor="middle" x="126.76" y="-6.6" font-family="SimSun" font-size="12.00">(S106)</text>
</g>
<!-- s105&#45;&gt;s106 -->
<g id="edge5" class="edge">
<title>s105&#45;&gt;s106</title>
<path fill="none" stroke="black" stroke-width="2" d="M126.76,-67.06C126.76,-67.06 126.76,-47.37 126.76,-47.37"/>
<polygon fill="black" stroke="black" stroke-width="2" points="129.39,-47.37 126.76,-39.87 124.14,-47.37 129.39,-47.37"/>
</g>
<!-- yesn -->
<g id="node8" class="node">
<title>yesn</title>
<polygon fill="none" stroke="black" stroke-width="2" points="186.52,-240 67,-240 67,-204 186.52,-204 186.52,-240"/>
<text xml:space="preserve" text-anchor="middle" x="126.76" y="-223.35" font-family="SimSun" font-size="12.00">是：按主数据源处理</text>
<text xml:space="preserve" text-anchor="middle" x="126.76" y="-210.6" font-family="SimSun" font-size="12.00">(S202)</text>
</g>
<!-- dec&#45;&gt;yesn -->
<g id="edge7" class="edge">
<title>dec&#45;&gt;yesn</title>
<path fill="none" stroke="black" stroke-width="2" d="M126.88,-352.02C126.88,-352.02 126.88,-251.32 126.88,-251.32"/>
<polygon fill="black" stroke="black" stroke-width="2" points="129.51,-251.32 126.88,-243.82 124.26,-251.32 129.51,-251.32"/>
</g>
<!-- non -->
<g id="node9" class="node">
<title>non</title>
<polygon fill="none" stroke="black" stroke-width="2" points="313.52,-308 194,-308 194,-272 313.52,-272 313.52,-308"/>
<text xml:space="preserve" text-anchor="middle" x="253.76" y="-291.35" font-family="SimSun" font-size="12.00">否：切换备用数据源</text>
<text xml:space="preserve" text-anchor="middle" x="253.76" y="-278.6" font-family="SimSun" font-size="12.00">(S203)</text>
</g>
<!-- dec&#45;&gt;non -->
<g id="edge8" class="edge">
<title>dec&#45;&gt;non</title>
<path fill="none" stroke="black" stroke-width="2" d="M226.14,-361.72C226.14,-361.72 226.14,-319.22 226.14,-319.22"/>
<polygon fill="black" stroke="black" stroke-width="2" points="228.77,-319.22 226.14,-311.72 223.52,-319.22 228.77,-319.22"/>
</g>
<!-- yesn&#45;&gt;s104 -->
<g id="edge9" class="edge">
<title>yesn&#45;&gt;s104</title>
<path fill="none" stroke="black" stroke-width="2" d="M126.76,-203.06C126.76,-203.06 126.76,-183.37 126.76,-183.37"/>
<polygon fill="black" stroke="black" stroke-width="2" points="129.39,-183.37 126.76,-175.87 124.14,-183.37 129.39,-183.37"/>
</g>
<!-- s204 -->
<g id="node10" class="node">
<title>s204</title>
<polygon fill="none" stroke="black" stroke-width="2" points="322.52,-240 209,-240 209,-204 322.52,-204 322.52,-240"/>
<text xml:space="preserve" text-anchor="middle" x="265.76" y="-223.35" font-family="SimSun" font-size="12.00">继续执行S102&#45;S106</text>
<text xml:space="preserve" text-anchor="middle" x="265.76" y="-210.6" font-family="SimSun" font-size="12.00">(S204)</text>
</g>
<!-- non&#45;&gt;s204 -->
<g id="edge10" class="edge">
<title>non&#45;&gt;s204</title>
<path fill="none" stroke="black" stroke-width="2" d="M261.26,-271.06C261.26,-271.06 261.26,-251.37 261.26,-251.37"/>
<polygon fill="black" stroke="black" stroke-width="2" points="263.89,-251.37 261.26,-243.87 258.64,-251.37 263.89,-251.37"/>
</g>
<!-- s204&#45;&gt;s104 -->
<g id="edge11" class="edge">
<title>s204&#45;&gt;s104</title>
<path fill="none" stroke="black" stroke-width="2" d="M265.76,-203.06C265.76,-182.94 265.76,-154 265.76,-154 265.76,-154 203.94,-154 203.94,-154"/>
<polygon fill="black" stroke="black" stroke-width="2" points="203.94,-151.38 196.44,-154 203.94,-156.63 203.94,-151.38"/>
</g>
<!-- legend -->
<g id="node11" class="node">
<title>legend</title>
<polygon fill="none" stroke="black" stroke-width="2" points="386.52,-635.92 255,-635.92 255,-576.28 386.52,-576.28 386.52,-635.92"/>
<text xml:space="preserve" text-anchor="start" x="260.76" y="-620.2" font-family="SimSun" font-size="12.00">附图标记说明</text>
<text xml:space="preserve" text-anchor="start" x="260.76" y="-607.45" font-family="SimSun" font-size="12.00">S101&#45;S106 主流程步骤</text>
<text xml:space="preserve" text-anchor="start" x="260.76" y="-594.7" font-family="SimSun" font-size="12.00">S201 可用性判断</text>
<text xml:space="preserve" text-anchor="start" x="260.76" y="-581.95" font-family="SimSun" font-size="12.00">S202&#45;S204 回退分支</text>
</g>
</g>
</svg>
